<svg viewBox="0 0 200.00 200.00" xmlns="http://www.w3.org/2000/svg"><rect x="3.00" y="3.00" width="194.00" height="194.00" fill="FRAME_COLOR" stroke="#1a1a1a" stroke-width="1.6"/><rect x="13.00" y="13.00" width="174.00" height="174.00" fill="#1ee5ec" stroke="#1a1a1a" stroke-width="1.2"/><line x1="3.00" y1="3.00" x2="13.00" y2="13.00" stroke="#1a1a1a" stroke-width="0.8"/><line x1="197.00" y1="3.00" x2="187.00" y2="13.00" stroke="#1a1a1a" stroke-width="0.8"/><line x1="3.00" y1="197.00" x2="13.00" y2="187.00" stroke="#1a1a1a" stroke-width="0.8"/><line x1="197.00" y1="197.00" x2="187.00" y2="187.00" stroke="#1a1a1a" stroke-width="0.8"/><rect x="96.50" y="13.00" width="7.00" height="174.00" fill="FRAME_COLOR" stroke="#1a1a1a" stroke-width="0.8"/><rect x="13.00" y="58.22" width="174.00" height="7.00" fill="FRAME_COLOR" stroke="#1a1a1a" stroke-width="0.8"/><line x1="56.50" y1="24.69" x2="56.50" y2="50.03" stroke="#1a1a1a" stroke-width="1.1"/><line x1="43.83" y1="37.36" x2="69.17" y2="37.36" stroke="#1a1a1a" stroke-width="1.1"/><rect x="52.70" y="33.56" width="7.60" height="7.60" fill="#1a1a1a"/><line x1="56.50" y1="101.74" x2="56.50" y2="146.98" stroke="#1a1a1a" stroke-width="1.1"/><line x1="33.88" y1="124.36" x2="79.12" y2="124.36" stroke="#1a1a1a" stroke-width="1.1"/><rect x="49.71" y="117.57" width="13.57" height="13.57" fill="#1a1a1a"/><line x1="143.50" y1="24.69" x2="143.50" y2="50.03" stroke="#1a1a1a" stroke-width="1.1"/><line x1="130.83" y1="37.36" x2="156.17" y2="37.36" stroke="#1a1a1a" stroke-width="1.1"/><rect x="139.70" y="33.56" width="7.60" height="7.60" fill="#1a1a1a"/><line x1="108.70" y1="124.36" x2="178.30" y2="74.25" stroke="#1a1a1a" stroke-width="1.1"/><line x1="108.70" y1="124.36" x2="178.30" y2="174.47" stroke="#1a1a1a" stroke-width="1.1"/><rect x="110.70" y="120.86" width="4.00" height="7.00" fill="FRAME_COLOR" stroke="#1a1a1a" stroke-width="0.7"/></svg>
