<svg viewBox="0 0 133.33 200.00" xmlns="http://www.w3.org/2000/svg"><rect x="3.00" y="3.00" width="127.33" height="194.00" fill="FRAME_COLOR" stroke="#1a1a1a" stroke-width="1.6"/><rect x="13.00" y="13.00" width="107.33" height="174.00" fill="#1ee5ec" stroke="#1a1a1a" stroke-width="1.2"/><line x1="3.00" y1="3.00" x2="13.00" y2="13.00" stroke="#1a1a1a" stroke-width="0.8"/><line x1="130.33" y1="3.00" x2="120.33" y2="13.00" stroke="#1a1a1a" stroke-width="0.8"/><line x1="3.00" y1="197.00" x2="13.00" y2="187.00" stroke="#1a1a1a" stroke-width="0.8"/><line x1="130.33" y1="197.00" x2="120.33" y2="187.00" stroke="#1a1a1a" stroke-width="0.8"/><rect x="63.17" y="13.00" width="7.00" height="174.00" fill="FRAME_COLOR" stroke="#1a1a1a" stroke-width="0.8"/><rect x="13.00" y="47.78" width="107.33" height="7.00" fill="FRAME_COLOR" stroke="#1a1a1a" stroke-width="0.8"/><rect x="13.00" y="145.22" width="107.33" height="7.00" fill="FRAME_COLOR" stroke="#1a1a1a" stroke-width="0.8"/><line x1="39.83" y1="22.19" x2="39.83" y2="42.09" stroke="#1a1a1a" stroke-width="1.1"/><line x1="29.88" y1="32.14" x2="49.79" y2="32.14" stroke="#1a1a1a" stroke-width="1.1"/><rect x="36.85" y="29.15" width="5.97" height="5.97" fill="#1a1a1a"/><line x1="61.30" y1="100.00" x2="18.37" y2="61.02" stroke="#1a1a1a" stroke-width="1.1"/><line x1="61.30" y1="100.00" x2="18.37" y2="138.98" stroke="#1a1a1a" stroke-width="1.1"/><rect x="55.30" y="96.50" width="4.00" height="7.00" fill="FRAME_COLOR" stroke="#1a1a1a" stroke-width="0.7"/><line x1="39.83" y1="157.91" x2="39.83" y2="177.81" stroke="#1a1a1a" stroke-width="1.1"/><line x1="29.88" y1="167.86" x2="49.79" y2="167.86" stroke="#1a1a1a" stroke-width="1.1"/><rect x="36.85" y="164.87" width="5.97" height="5.97" fill="#1a1a1a"/><line x1="93.50" y1="22.19" x2="93.50" y2="42.09" stroke="#1a1a1a" stroke-width="1.1"/><line x1="83.55" y1="32.14" x2="103.45" y2="32.14" stroke="#1a1a1a" stroke-width="1.1"/><rect x="90.51" y="29.15" width="5.97" height="5.97" fill="#1a1a1a"/><line x1="72.03" y1="100.00" x2="114.97" y2="61.02" stroke="#1a1a1a" stroke-width="1.1"/><line x1="72.03" y1="100.00" x2="114.97" y2="138.98" stroke="#1a1a1a" stroke-width="1.1"/><rect x="74.03" y="96.50" width="4.00" height="7.00" fill="FRAME_COLOR" stroke="#1a1a1a" stroke-width="0.7"/><line x1="93.50" y1="157.91" x2="93.50" y2="177.81" stroke="#1a1a1a" stroke-width="1.1"/><line x1="83.55" y1="167.86" x2="103.45" y2="167.86" stroke="#1a1a1a" stroke-width="1.1"/><rect x="90.51" y="164.87" width="5.97" height="5.97" fill="#1a1a1a"/></svg>
