<svg viewBox="0 0 200.00 200.00" xmlns="http://www.w3.org/2000/svg"><rect x="3.00" y="3.00" width="194.00" height="194.00" fill="FRAME_COLOR" stroke="#1a1a1a" stroke-width="1.6"/><rect x="13.00" y="13.00" width="174.00" height="174.00" fill="#1ee5ec" stroke="#1a1a1a" stroke-width="1.2"/><line x1="3.00" y1="3.00" x2="13.00" y2="13.00" stroke="#1a1a1a" stroke-width="0.8"/><line x1="197.00" y1="3.00" x2="187.00" y2="13.00" stroke="#1a1a1a" stroke-width="0.8"/><line x1="3.00" y1="197.00" x2="13.00" y2="187.00" stroke="#1a1a1a" stroke-width="0.8"/><line x1="197.00" y1="197.00" x2="187.00" y2="187.00" stroke="#1a1a1a" stroke-width="0.8"/><line x1="16.00" y1="16.00" x2="184.00" y2="16.00" stroke="#1a1a1a" stroke-width="0.9"/><line x1="16.00" y1="25.33" x2="184.00" y2="25.33" stroke="#1a1a1a" stroke-width="0.9"/><line x1="16.00" y1="34.67" x2="184.00" y2="34.67" stroke="#1a1a1a" stroke-width="0.9"/><line x1="16.00" y1="44.00" x2="184.00" y2="44.00" stroke="#1a1a1a" stroke-width="0.9"/><line x1="16.00" y1="53.33" x2="184.00" y2="53.33" stroke="#1a1a1a" stroke-width="0.9"/><line x1="16.00" y1="62.67" x2="184.00" y2="62.67" stroke="#1a1a1a" stroke-width="0.9"/><line x1="16.00" y1="72.00" x2="184.00" y2="72.00" stroke="#1a1a1a" stroke-width="0.9"/><line x1="16.00" y1="81.33" x2="184.00" y2="81.33" stroke="#1a1a1a" stroke-width="0.9"/><line x1="16.00" y1="90.67" x2="184.00" y2="90.67" stroke="#1a1a1a" stroke-width="0.9"/><line x1="16.00" y1="100.00" x2="184.00" y2="100.00" stroke="#1a1a1a" stroke-width="0.9"/><line x1="16.00" y1="109.33" x2="184.00" y2="109.33" stroke="#1a1a1a" stroke-width="0.9"/><line x1="16.00" y1="118.67" x2="184.00" y2="118.67" stroke="#1a1a1a" stroke-width="0.9"/><line x1="16.00" y1="128.00" x2="184.00" y2="128.00" stroke="#1a1a1a" stroke-width="0.9"/><line x1="16.00" y1="137.33" x2="184.00" y2="137.33" stroke="#1a1a1a" stroke-width="0.9"/><line x1="16.00" y1="146.67" x2="184.00" y2="146.67" stroke="#1a1a1a" stroke-width="0.9"/><line x1="16.00" y1="156.00" x2="184.00" y2="156.00" stroke="#1a1a1a" stroke-width="0.9"/><line x1="16.00" y1="165.33" x2="184.00" y2="165.33" stroke="#1a1a1a" stroke-width="0.9"/><line x1="16.00" y1="174.67" x2="184.00" y2="174.67" stroke="#1a1a1a" stroke-width="0.9"/><line x1="16.00" y1="184.00" x2="184.00" y2="184.00" stroke="#1a1a1a" stroke-width="0.9"/></svg>
